<?xml version="1.0" encoding="UTF-8"?>
<svg version="1.1" xmlns="http://www.w3.org/2000/svg" width="512" height="512">
<path d="M0 0 C1.70630139 1.67602055 3.43243013 3.32916294 5.16308594 4.97998047 C12.26417149 11.82542281 18.55687438 19.05454605 24.44238281 26.96728516 C25.28346957 28.09785336 26.13084357 29.22377968 26.98535156 30.34423828 C64.45402251 79.48104527 78.41788919 142.94072292 70.33837891 203.671875 C67.20361072 224.8524466 61.29031726 245.10003544 52.73339844 264.70263672 C52.4164502 265.43820801 52.09950195 266.1737793 51.77294922 266.93164062 C41.22957818 291.1721023 25.95477178 313.15273918 7.43603516 331.96923828 C5.7600146 333.67553967 4.10687222 335.40166841 2.45605469 337.13232422 C-4.38938765 344.23340978 -11.61851089 350.52611267 -19.53125 356.41162109 C-20.6618182 357.25270785 -21.78774452 358.10008185 -22.90820312 358.95458984 C-71.28663418 395.8449705 -134.20658467 410.3746928 -194.1105957 402.50512695 C-243.20070797 395.57024589 -289.05934811 374.31777094 -324.53320312 339.40527344 C-326.23950452 337.72925289 -327.96563326 336.0761105 -329.69628906 334.42529297 C-336.79737462 327.57985063 -343.09007751 320.35072739 -348.97558594 312.43798828 C-349.81667269 311.30742008 -350.6640467 310.18149376 -351.51855469 309.06103516 C-388.31411298 260.80695515 -402.59528691 198.46620736 -395.26660156 138.70263672 C-392.25812718 116.4830639 -386.22843033 95.23282518 -377.26660156 74.70263672 C-376.94965332 73.96706543 -376.63270508 73.23149414 -376.30615234 72.47363281 C-366.18665209 49.20770039 -351.65223173 27.44466936 -333.86767578 9.33447266 C-332.12318838 7.55646811 -330.40078994 5.75828331 -328.67675781 3.96044922 C-321.24366257 -3.71139434 -313.56542247 -10.69344058 -304.96972656 -17.03857422 C-303.30625225 -18.26805724 -301.66132605 -19.51952541 -300.01660156 -20.77392578 C-225.51242137 -76.68808809 -117.72435637 -79.56871548 0 0 Z " fill="#4DA0DB" transform="translate(418.2666015625,86.29736328125)"/>
<path d="M0 0 C1.16470558 -0.0055344 2.32941115 -0.01106879 3.52941084 -0.0167709 C6.75393453 -0.02801638 9.97784386 -0.02135543 13.20233703 -0.00703418 C16.68297571 0.00408191 20.16354613 -0.00786908 23.6441803 -0.01687622 C30.45940804 -0.03080641 37.27445044 -0.02325421 44.08966935 -0.00820064 C52.02677212 0.00866334 59.96382878 0.00544871 67.90094393 0.00170528 C82.06310977 -0.00417289 96.22518669 0.00999658 110.3873291 0.03465271 C124.12857395 0.05857336 137.86969999 0.06565692 151.61096191 0.05516052 C166.57540792 0.04375026 181.53979898 0.04182259 196.50424433 0.05625862 C198.10004329 0.05778445 199.69584226 0.05930481 201.29164124 0.06081963 C202.07679846 0.06157744 202.86195569 0.06233525 203.67090556 0.06311603 C209.20305159 0.06785802 214.73517307 0.06600802 220.26731873 0.06175423 C227.0094608 0.05682666 233.75149056 0.06281591 240.49360693 0.08264852 C243.93334849 0.09251769 247.37291908 0.0976298 250.81266975 0.08975601 C254.54139405 0.08381626 258.26961235 0.09628418 261.99829102 0.11352539 C263.62931676 0.10451032 263.62931676 0.10451032 265.29329252 0.09531313 C270.76670506 0.14146162 274.81097448 0.33947316 279.49914551 3.50120544 C283.19697466 7.59879992 284.62070035 9.98021444 284.64631653 15.44009399 C284.65704948 17.00669769 284.65704948 17.00669769 284.66799927 18.60494995 C284.67068817 19.7556044 284.67337708 20.90625885 284.67614746 22.09178162 C284.68271866 23.30002594 284.68928986 24.50827026 284.69606018 25.75312805 C284.71583195 29.76681258 284.72746555 33.78045709 284.73742676 37.79417419 C284.74147444 39.17649671 284.74559137 40.55881902 284.74977684 41.94114113 C284.76883299 48.43754401 284.78306129 54.93393551 284.79138881 61.43036097 C284.80115354 68.92406154 284.82745095 76.41746611 284.8678897 83.91106242 C284.89808389 89.70564654 284.91286093 95.50014601 284.91616982 101.29480726 C284.91851723 104.75425011 284.92743609 108.21337692 284.952631 111.67273521 C284.98031525 115.53647114 284.97607044 119.39982036 284.96911621 123.26365662 C284.9883313 124.97445656 284.9883313 124.97445656 285.00793457 126.71981812 C284.96543341 133.19860984 284.42682828 137.26276461 280.49914551 142.50120544 C275.78513681 145.82587998 271.58653008 145.90773764 266.03820801 145.79417419 C265.24764008 145.78992935 264.45707214 145.78568451 263.64254761 145.78131104 C261.13605611 145.76461845 258.6303909 145.72698527 256.12414551 145.68870544 C254.41712593 145.67364636 252.71009366 145.6599601 251.00305176 145.64768982 C246.83476826 145.61474601 242.66709662 145.56303037 238.49914551 145.50120544 C238.54518921 147.44386292 238.54518921 147.44386292 238.59216309 149.42576599 C238.82551606 160.17628341 237.92590761 170.02857136 235.49914551 180.50120544 C237.14914551 180.50120544 238.79914551 180.50120544 240.49914551 180.50120544 C240.49914551 206.24120544 240.49914551 231.98120544 240.49914551 258.50120544 C218.05914551 258.50120544 195.61914551 258.50120544 172.49914551 258.50120544 C172.49914551 232.76120544 172.49914551 207.02120544 172.49914551 180.50120544 C173.81914551 180.17120544 175.13914551 179.84120544 176.49914551 179.50120544 C176.00285645 179.01651794 175.50656738 178.53183044 174.99523926 178.03245544 C171.03433337 174.12416121 167.2541943 170.14477642 163.63586426 165.91917419 C161.85747504 163.90670084 160.04806596 161.94322522 158.20617676 159.98948669 C157.61796143 159.36445251 157.02974609 158.73941833 156.42370605 158.09544373 C155.23769321 156.83879465 154.04783147 155.5857654 152.85388184 154.33665466 C152.30627197 153.75544861 151.75866211 153.17424255 151.19445801 152.57542419 C150.45219971 151.79558167 150.45219971 151.79558167 149.69494629 150.99998474 C148.49914551 149.50120544 148.49914551 149.50120544 147.49914551 146.50120544 C135.28914551 146.17120544 123.07914551 145.84120544 110.49914551 145.50120544 C109.83914551 147.15120544 109.17914551 148.80120544 108.49914551 150.50120544 C107.12976074 152.28709412 107.12976074 152.28709412 105.55773926 153.91917419 C104.97814453 154.52914246 104.3985498 155.13911072 103.8013916 155.76756287 C103.18602539 156.40153992 102.57065918 157.03551697 101.93664551 157.68870544 C100.66639047 159.02134925 99.39686005 160.35468412 98.12805176 161.68870544 C97.50817383 162.33710388 96.8882959 162.98550232 96.24963379 163.65354919 C93.21632688 166.85523214 90.29420952 170.15229093 87.36633301 173.45042419 C85.47019767 175.53299962 83.5059824 177.52558601 81.49914551 179.50120544 C82.81914551 179.83120544 84.13914551 180.16120544 85.49914551 180.50120544 C85.49914551 206.24120544 85.49914551 231.98120544 85.49914551 258.50120544 C63.05914551 258.50120544 40.61914551 258.50120544 17.49914551 258.50120544 C17.49914551 232.76120544 17.49914551 207.02120544 17.49914551 180.50120544 C19.14914551 180.50120544 20.79914551 180.50120544 22.49914551 180.50120544 C22.28258301 179.56663513 22.06602051 178.63206482 21.84289551 177.66917419 C19.49683316 166.85191701 19.17511575 156.54221946 19.49914551 145.50120544 C18.08435913 145.52477112 18.08435913 145.52477112 16.64099121 145.54881287 C13.12791403 145.60006552 9.61523653 145.63761535 6.10192871 145.66600037 C4.58396113 145.68104897 3.06603675 145.70149282 1.54821777 145.7275238 C-0.63882127 145.76408198 -2.82528346 145.78097067 -5.01257324 145.79417419 C-6.98423462 145.81773987 -6.98423462 145.81773987 -8.99572754 145.84178162 C-12.85508025 145.46678705 -14.54589564 144.98638053 -17.50085449 142.50120544 C-22.09444173 136.2776635 -22.07250158 130.90132776 -22.01843262 123.32713318 C-22.02544189 122.11655243 -22.03245117 120.90597168 -22.03967285 119.65870667 C-22.05421557 116.35474954 -22.0508732 113.05180038 -22.03815651 109.74790072 C-22.02798954 106.28203454 -22.03743219 102.81620977 -22.04370117 99.3503418 C-22.05096592 93.53246884 -22.04141988 87.71479941 -22.02233887 81.8969574 C-22.0005619 75.17972471 -22.00763179 68.46297755 -22.02964449 61.74575657 C-22.04781992 55.96718338 -22.05034673 50.18875601 -22.03988981 44.41016346 C-22.03366787 40.96373448 -22.03278329 37.51753346 -22.04603577 34.07111931 C-22.05977899 30.22918316 -22.04070953 26.38778729 -22.01843262 22.54588318 C-22.02652954 21.40960983 -22.03462646 20.27333649 -22.04296875 19.10263062 C-21.97851983 13.10358734 -21.79677496 9.08054899 -17.50085449 4.50120544 C-12.01881495 -0.29691007 -7.08266491 -0.06256404 0 0 Z " fill="#E9EEF2" transform="translate(124.5008544921875,155.49879455566406)"/>
<path d="M0 0 C5.10943616 4.28585552 9.92871074 8.7608989 14.66357422 13.45483398 C15.3945079 14.17598389 16.12544159 14.89713379 16.87852478 15.64013672 C19.27372014 18.00563886 21.66483556 20.37519375 24.0546875 22.74609375 C25.28434927 23.96589778 25.28434927 23.96589778 26.53885269 25.21034431 C30.86824208 29.50727174 35.1936423 33.80817656 39.51660156 38.11157227 C43.09154876 41.66864187 46.674834 45.21698291 50.265625 48.75805664 C54.61172908 53.04407442 58.94302362 57.34453718 63.2640419 61.65583992 C64.91038546 63.2936189 66.56186283 64.92625403 68.21853256 66.55358696 C70.5308911 68.82714704 72.82371535 71.11880607 75.11279297 73.41577148 C75.79950577 74.08248367 76.48621857 74.74919586 77.19374084 75.43611145 C81.17333318 79.47768919 82.86163222 82.09005763 83 88 C83.02811768 88.9084668 83.05623535 89.81693359 83.08520508 90.75292969 C82.26063821 124.26283673 76.59345103 156.23273913 63 187 C62.52675293 188.09465576 62.52675293 188.09465576 62.04394531 189.21142578 C51.50113026 213.4599004 36.22667069 235.44471994 17.70263672 254.26660156 C16.02661617 255.97290296 14.37347378 257.69903169 12.72265625 259.4296875 C5.87721391 266.53077306 -1.35190933 272.82347595 -9.26464844 278.70898438 C-10.39521664 279.55007113 -11.52114296 280.39744514 -12.64160156 281.25195312 C-58.29678082 316.06575145 -117.15063421 331.04461561 -174 326 C-174.8883252 325.9282959 -175.77665039 325.8565918 -176.69189453 325.78271484 C-179.40562011 325.54608915 -182.10677536 325.25188704 -184.8125 324.9375 C-185.63073242 324.86563477 -186.44896484 324.79376953 -187.29199219 324.71972656 C-191.6160879 324.13635956 -194.12521014 323.30316113 -196.85449219 319.83398438 C-200.26831896 315.75461856 -203.90689031 311.98582203 -207.66967773 308.23266602 C-208.61307322 307.29085857 -208.61307322 307.29085857 -209.57552719 306.33002472 C-210.91365969 304.99649971 -212.2527294 303.66391461 -213.59264946 302.33218575 C-215.71693473 300.22076722 -217.83798948 298.10614979 -219.95826721 295.9907074 C-224.44852877 291.51180784 -228.94273987 287.03688442 -233.4375 282.5625 C-238.67177654 277.35181065 -243.90442935 272.13951179 -249.13292122 266.9230175 C-251.22716993 264.83527131 -253.32439468 262.75054582 -255.42173767 260.66590881 C-256.6933325 259.39794309 -257.96478906 258.12983868 -259.23608398 256.86157227 C-259.82353394 256.27928864 -260.41098389 255.697005 -261.01623535 255.09707642 C-262.36326445 253.75022703 -263.68475958 252.37790903 -265 251 C-265 250.67 -265 250.34 -265 250 C-242.89 250 -220.78 250 -198 250 C-198 224.26 -198 198.52 -198 172 C-199.65 172 -201.3 172 -203 172 C-198.69873725 166.89804065 -194.22644687 162.0184922 -189.625 157.1875 C-180.31694963 147.83743205 -180.31694963 147.83743205 -173 137 C-167.80400093 136.85156463 -162.60923772 136.74274663 -157.41162109 136.67041016 C-155.64414981 136.64025517 -153.87682797 136.59932322 -152.10986328 136.54736328 C-149.56765918 136.47448391 -147.0274338 136.44053372 -144.484375 136.4140625 C-143.69569031 136.38309479 -142.90700562 136.35212708 -142.09442139 136.32022095 C-139.85058594 136.31884766 -139.85058594 136.31884766 -136 137 C-133.69311523 139.78955078 -133.69311523 139.78955078 -132 143 C-130.84591806 144.35051805 -129.6556345 145.67122598 -128.42578125 146.953125 C-127.43010132 147.99907837 -127.43010132 147.99907837 -126.41430664 149.06616211 C-125.37391235 150.14716187 -125.37391235 150.14716187 -124.3125 151.25 C-122.87945475 152.7557936 -121.44715923 154.26230108 -120.015625 155.76953125 C-119.32662109 156.49350098 -118.63761719 157.2174707 -117.92773438 157.96337891 C-107.52107383 168.95785235 -107.52107383 168.95785235 -106 172 C-107.65 172 -109.3 172 -111 172 C-111 197.74 -111 223.48 -111 250 C-88.56 250 -66.12 250 -43 250 C-43 224.26 -43 198.52 -43 172 C-44.65 172 -46.3 172 -48 172 C-47.85566132 170.64567321 -47.70943339 169.29154775 -47.5625 167.9375 C-47.44068359 166.80634766 -47.44068359 166.80634766 -47.31640625 165.65234375 C-47.08358117 163.70063719 -46.80459608 161.7543 -46.5 159.8125 C-45.89906162 155.23034488 -45.65152426 150.67630161 -45.4375 146.0625 C-45.37272461 144.75055664 -45.37272461 144.75055664 -45.30664062 143.41210938 C-45.20153099 141.27488005 -45.10036015 139.13745762 -45 137 C-43.94087402 136.98018066 -42.88174805 136.96036133 -41.79052734 136.93994141 C-37.843029 136.86359306 -33.89588527 136.77492175 -29.94873047 136.68261719 C-28.24372381 136.64444781 -26.53863994 136.60957434 -24.83349609 136.578125 C-22.37569674 136.53221164 -19.91842348 136.47426231 -17.4609375 136.4140625 C-16.70444916 136.40251129 -15.94796082 136.39096008 -15.16854858 136.37905884 C-10.77540318 136.25787159 -7.03576273 135.78672609 -3 134 C-1.61141128 131.57114212 -1.61141128 131.57114212 -1 129 C-0.67 128.34 -0.34 127.68 0 127 C0.09300842 125.31478185 0.121919 123.62586181 0.12025452 121.93807983 C0.12162918 120.86673294 0.12300385 119.79538605 0.12442017 118.6915741 C0.12082489 117.51122086 0.11722961 116.33086761 0.11352539 115.11474609 C0.11374443 113.25625282 0.11374443 113.25625282 0.1139679 111.36021423 C0.11338953 107.95752498 0.10836527 104.55489597 0.10139394 101.15221739 C0.09515368 97.59811295 0.09455607 94.04400775 0.09336853 90.48989868 C0.0902572 83.75738213 0.08204648 77.02488176 0.07201904 70.29237235 C0.06085176 62.6286288 0.0553459 54.96488448 0.05032361 47.30113482 C0.03986371 31.5340805 0.02226809 15.76704234 0 0 Z " fill="#4590C5" transform="translate(408,164)"/>
<path d="M0 0 C3.51737121 2.68617812 4.85640869 4.14924198 5.60127258 8.56245422 C5.61566242 9.95086794 5.60270242 11.33973802 5.56762695 12.7277832 C5.56835709 13.48929184 5.56908722 14.25080048 5.56983948 15.03538513 C5.56636835 17.54125313 5.52753318 20.04523985 5.48828125 22.55078125 C5.47895135 24.29240402 5.47183607 26.03403994 5.46684265 27.77568054 C5.4477866 32.35121126 5.39869828 36.92594358 5.34332275 41.50115967 C5.29209992 46.17318929 5.26932216 50.84534841 5.24414062 55.51757812 C5.19057782 64.67873547 5.10528222 73.83930125 5 83 C6.134375 82.38125 7.26875 81.7625 8.4375 81.125 C9.07558594 80.77695312 9.71367187 80.42890625 10.37109375 80.0703125 C12.16618315 79.08589976 12.16618315 79.08589976 13 77 C12.69835937 76.26523437 12.39671875 75.53046875 12.0859375 74.7734375 C9.931472 69.27102562 9.82098012 62.15259664 11.8984375 56.59765625 C13 54.6875 13 54.6875 15 52 C18.64378748 53.45494511 20.11473363 55.21728491 22.19921875 58.5 C22.76833984 59.386875 23.33746094 60.27375 23.92382812 61.1875 C24.50583984 62.115625 25.08785156 63.04375 25.6875 64 C26.28111328 64.928125 26.87472656 65.85625 27.48632812 66.8125 C33.65819707 76.49607088 33.65819707 76.49607088 33.6015625 82.3671875 C31.79937834 90.25466882 23.54607275 96.62590258 17.91015625 102.09375 C15.33291594 104.66571988 12.98228107 107.40864908 10.609375 110.16796875 C8.50760458 112.56051809 6.28559058 114.78366974 4 117 C5.98 117.495 5.98 117.495 8 118 C8 143.74 8 169.48 8 196 C-14.44 196 -36.88 196 -60 196 C-60 170.26 -60 144.52 -60 118 C-58.35 118 -56.7 118 -55 118 C-55.21148682 117.16621826 -55.42297363 116.33243652 -55.64086914 115.47338867 C-58.40944468 103.01520505 -58.49119626 90.71964314 -58.44604492 77.99633789 C-58.43742814 74.28151886 -58.46656454 70.56818768 -58.49804688 66.85351562 C-58.49965661 64.48177129 -58.49908572 62.11002424 -58.49609375 59.73828125 C-58.50732773 58.63309647 -58.51856171 57.52791168 -58.53013611 56.38923645 C-58.46108054 48.8137702 -58.46108054 48.8137702 -56.18774414 44.80151367 C-54 43 -54 43 -50.5 42.4375 C-46.57371632 43.06850988 -45.40514493 43.92141449 -43 47 C-42.7525 45.906875 -42.505 44.81375 -42.25 43.6875 C-41 40 -41 40 -39.3125 38 C-35.85988693 36.50697813 -33.5773185 37.02436768 -30 38 C-28.0625 40.0625 -28.0625 40.0625 -27 42 C-26.54625 41.21625 -26.0925 40.4325 -25.625 39.625 C-24 37 -24 37 -22 35 C-18.55228298 34.62524815 -16.69757005 34.51716237 -13.8046875 36.51953125 C-13.20914063 37.00808594 -12.61359375 37.49664062 -12 38 C-11.9906543 36.99098633 -11.98130859 35.98197266 -11.97167969 34.94238281 C-11.9317523 31.19226224 -11.86598719 27.44295971 -11.79248047 23.69335938 C-11.76428653 22.07172163 -11.74306406 20.44994687 -11.72900391 18.828125 C-11.70755128 16.49407895 -11.66089425 14.16167739 -11.609375 11.828125 C-11.60814636 11.10506165 -11.60691772 10.38199829 -11.60565186 9.63702393 C-11.50704528 6.23454304 -11.22958793 4.30902756 -9.17675781 1.54589844 C-5.94151469 -0.75171927 -3.86990294 -0.61103731 0 0 Z " fill="#FDD96F" transform="translate(202,218)"/>
<path d="M0 0 C2.18066406 1.52832031 2.18066406 1.52832031 4 4 C4.41786702 6.80696003 4.60474313 9.23851941 4.609375 12.046875 C4.62591125 12.81807678 4.64244751 13.58927856 4.65948486 14.3838501 C4.70794593 16.83931454 4.72933037 19.29415984 4.75 21.75 C4.77816146 23.41799987 4.80808914 25.08597092 4.83984375 26.75390625 C4.91370372 30.8358865 4.96328936 34.91752345 5 39 C5.60070312 38.35160156 6.20140625 37.70320313 6.8203125 37.03515625 C9 35 9 35 11.875 34.4375 C16.16025002 35.208845 17.87170676 37.02067311 21 40 C21.53625 39.505 22.0725 39.01 22.625 38.5 C25.76313998 36.51801686 27.34873465 36.32935942 31 37 C33.90527883 39.90527883 35.69835812 42.09507437 37 46 C37.350625 45.505 37.70125 45.01 38.0625 44.5 C41.06034694 42.17908624 43.32644233 42.54886134 47 43 C49.59536471 45.01261896 50.83878983 46.2083146 51.50120544 49.46136475 C51.50137161 50.38129211 51.50153778 51.30121948 51.50170898 52.24902344 C51.51108994 53.2982196 51.52047089 54.34741577 51.53013611 55.42840576 C51.51890213 56.56062561 51.50766815 57.69284546 51.49609375 58.859375 C51.49754898 60.0365509 51.49900421 61.21372681 51.50050354 62.42657471 C51.4988423 64.92487046 51.48725614 67.4231762 51.46655273 69.92138672 C51.43792386 73.69414358 51.44587573 77.46546547 51.45898438 81.23828125 C51.44617339 93.80554119 51.12466903 105.7774851 48 118 C49.65 118 51.3 118 53 118 C53 143.74 53 169.48 53 196 C30.56 196 8.12 196 -15 196 C-15 170.26 -15 144.52 -15 118 C-13.02 117.505 -13.02 117.505 -11 117 C-11.49628906 116.5153125 -11.99257813 116.030625 -12.50390625 115.53125 C-16.46481214 111.62295577 -20.2449512 107.64357097 -23.86328125 103.41796875 C-25.64167047 101.40549539 -27.45107955 99.44201978 -29.29296875 97.48828125 C-30.17529175 96.55072998 -30.17529175 96.55072998 -31.07543945 95.59423828 C-32.2614523 94.33758921 -33.45131404 93.08455995 -34.64526367 91.83544922 C-35.19287354 91.25424316 -35.7404834 90.67303711 -36.3046875 90.07421875 C-36.79952637 89.55432373 -37.29436523 89.03442871 -37.80419922 88.4987793 C-40.11542853 85.60195676 -40.58176162 82.09615672 -40.53515625 78.4609375 C-39.30437078 72.80112111 -35.29892894 68.15503228 -32 63.5 C-31.2274659 62.381381 -30.45661525 61.2615974 -29.6875 60.140625 C-27.80788636 57.41518522 -25.9120171 54.70275822 -24 52 C-20.63469263 53.12176912 -20.37882521 53.45488073 -18.8125 56.4375 C-16.14019306 62.1302305 -15.98020361 68.00434811 -18 73.9375 C-18.33 74.618125 -18.66 75.29875 -19 76 C-19 76.99 -19 77.98 -19 79 C-17.4645122 80.46090788 -17.4645122 80.46090788 -15.5 81.6875 C-14.8503125 82.12449219 -14.200625 82.56148438 -13.53125 83.01171875 C-13.0259375 83.33785156 -12.520625 83.66398437 -12 84 C-11.99635437 83.00663635 -11.99270874 82.01327271 -11.98895264 80.98980713 C-11.95202229 71.63138936 -11.8942713 62.27330124 -11.81609726 52.91513443 C-11.77657644 48.10389078 -11.74441063 43.29283141 -11.72900391 38.48144531 C-11.71386755 33.83874281 -11.67947611 29.19654679 -11.63169098 24.55406952 C-11.61684591 22.78228913 -11.6089572 21.01043644 -11.60811615 19.23859406 C-11.60575406 16.75779631 -11.57873769 14.27840696 -11.54589844 11.79785156 C-11.5509288 11.06417358 -11.55595917 10.33049561 -11.56114197 9.57458496 C-11.49164009 6.18446278 -11.22332803 4.30215322 -9.18463135 1.54388428 C-5.98280861 -0.71885162 -3.82226827 -0.54603832 0 0 Z " fill="#FDD96F" transform="translate(312,218)"/>
<path d="M0 0 C0.99410385 -0.0131424 1.9882077 -0.02628479 3.01243591 -0.03982544 C6.29556601 -0.0791832 9.57851389 -0.10258814 12.86181641 -0.12255859 C13.98484791 -0.13070965 15.10787941 -0.1388607 16.26494217 -0.14725876 C22.20575468 -0.18892811 28.14647544 -0.21755718 34.08740234 -0.23632812 C40.22022859 -0.25848333 46.35160868 -0.32732472 52.48392296 -0.40667152 C57.20403739 -0.45896429 61.92380548 -0.47570768 66.64418411 -0.48289108 C68.9048607 -0.49262888 71.16552151 -0.51587502 73.42591476 -0.55296707 C76.59110124 -0.60169056 79.75252184 -0.59983793 82.91796875 -0.5859375 C83.84807266 -0.61155762 84.77817657 -0.63717773 85.73646545 -0.66357422 C89.56531901 -0.60238852 92.08023842 -0.48153047 95.0924654 2.01496601 C96.87814507 4.05694948 98.48587713 6.16667352 100.08837891 8.35400391 C101.77102065 10.10938613 103.47260999 11.84691506 105.19750977 13.56079102 C105.88666977 14.24776062 105.88666977 14.24776062 106.5897522 14.9486084 C107.56960292 15.92470486 108.55060463 16.89964715 109.53269768 17.87348747 C111.08573433 19.41358853 112.63547392 20.95694307 114.1844635 22.50111389 C117.46210237 25.76743012 120.74371302 29.02973756 124.02587891 32.29150391 C127.855865 36.09787898 131.68420101 39.9058848 135.50839424 43.71808052 C137.03758448 45.2407759 138.56974433 46.7604401 140.10203552 48.28001404 C141.02041702 49.19509232 141.93879852 50.11017059 142.88500977 51.05297852 C143.69884628 51.86157822 144.5126828 52.67017792 145.35118103 53.50328064 C147.08837891 55.35400391 147.08837891 55.35400391 147.08837891 56.35400391 C116.72837891 56.35400391 86.36837891 56.35400391 55.08837891 56.35400391 C56.11197591 50.21242185 56.51068128 49.05975913 61.08837891 45.35400391 C62.07837891 45.35400391 63.06837891 45.35400391 64.08837891 45.35400391 C63.83314017 43.72648159 63.55863396 42.10197195 63.27587891 40.47900391 C63.12505859 39.57408203 62.97423828 38.66916016 62.81884766 37.73681641 C62.2578659 35.00987912 62.2578659 35.00987912 59.08837891 33.35400391 C56.03609875 33.04438249 56.03609875 33.04438249 52.5090332 33.08276367 C51.84523651 33.07753693 51.18143982 33.07231018 50.49752808 33.06692505 C49.05706329 33.05668997 47.61656157 33.0509055 46.17606163 33.04904366 C43.89306287 33.0453788 41.61049807 33.0286482 39.32759094 33.00828552 C32.83720994 32.95289281 26.34676436 32.92223187 19.85620117 32.89770508 C15.8844407 32.88179226 11.91298663 32.85153148 7.94138527 32.8129406 C6.43081743 32.80131998 4.92019468 32.7953605 3.40958214 32.79525948 C1.29136748 32.79506649 -0.82600809 32.77673293 -2.9440918 32.75463867 C-4.1474971 32.74956802 -5.3509024 32.74449738 -6.59077454 32.73927307 C-10.94151263 32.23452068 -14.33717272 30.82373838 -17.55615234 27.81884766 C-21.50290998 22.65770306 -22.43460324 19.72688612 -22.39208984 13.25634766 C-21.58465218 8.37889899 -18.7519742 5.31783541 -14.91162109 2.35400391 C-10.11048844 -0.21861816 -5.3089098 0.03056278 0 0 Z " fill="#448EC3" transform="translate(192.91162109375,99.64599609375)"/>
<path d="M0 0 C22.44 0 44.88 0 68 0 C68 25.74 68 51.48 68 78 C45.56 78 23.12 78 0 78 C0 52.26 0 26.52 0 0 Z " fill="#DC584D" transform="translate(297,336)"/>
<path d="M0 0 C22.44 0 44.88 0 68 0 C68 25.74 68 51.48 68 78 C45.56 78 23.12 78 0 78 C0 52.26 0 26.52 0 0 Z " fill="#DC584D" transform="translate(142,336)"/>
<path d="M0 0 C8.91 0 17.82 0 27 0 C27 7.92 27 15.84 27 24 C24.69 24 22.38 24 20 24 C18.125 21.5625 18.125 21.5625 17 19 C15.83622098 17.61857444 15.83622098 17.61857444 12.625 17.75 C9.18756654 17.70899222 9.18756654 17.70899222 7.30046082 19.02961731 C5.28677637 22.08063502 5.56082702 25.23837052 5.56762695 28.77612305 C5.5574353 29.56660034 5.54724365 30.35707764 5.53674316 31.17150879 C5.50654267 33.78498354 5.49733662 36.39809221 5.48828125 39.01171875 C5.47143976 40.82348353 5.45329024 42.63523659 5.43388367 44.44697571 C5.38631983 49.21611875 5.35655184 53.98521427 5.33044434 58.7545166 C5.30067096 63.6209451 5.2541296 68.48720975 5.20898438 73.35351562 C5.12287868 82.90225816 5.05556577 92.45103435 5 102 C2.03 100.02 -0.94 98.04 -4 96 C-3.125 90.25 -3.125 90.25 -2 88 C-1.18891697 80.84651358 -2.35348762 76.15348963 -6 70 C-6.66 70 -7.32 70 -8 70 C-10.77885364 73.49994587 -13.12416826 77.32010226 -15.5625 81.0625 C-16.26052734 82.10083984 -16.95855469 83.13917969 -17.67773438 84.20898438 C-18.34224609 85.22412109 -19.00675781 86.23925781 -19.69140625 87.28515625 C-20.30185791 88.21207275 -20.91230957 89.13898926 -21.54125977 90.09399414 C-23.45206862 93.51677561 -23.45206862 93.51677561 -24 100 C-36.21 100 -48.42 100 -61 100 C-61.66 97.03 -62.32 94.06 -63 91 C-64.39952482 88.06801157 -64.39952482 88.06801157 -66.1875 85.5625 C-66.80367187 84.64855469 -67.41984375 83.73460937 -68.0546875 82.79296875 C-69.01761719 81.41044922 -69.01761719 81.41044922 -70 80 C-70.64195312 79.04738281 -71.28390625 78.09476562 -71.9453125 77.11328125 C-74.82989436 72.36782674 -74.82989436 72.36782674 -79 69 C-79.309375 69.78375 -79.61875 70.5675 -79.9375 71.375 C-81 74 -81 74 -82 76 C-82.1235718 78.08060425 -82.17560367 80.16576333 -82.1875 82.25 C-82.20167969 83.36890625 -82.21585938 84.4878125 -82.23046875 85.640625 C-81.99467313 89.07764584 -81.22846663 91.79530445 -80 95 C-85.625 100 -85.625 100 -89 100 C-89 88.12 -89 76.24 -89 64 C-58.31 64 -27.62 64 4 64 C4 61.36 4 58.72 4 56 C2.68 56 1.36 56 0 56 C0 48.08 0 40.16 0 32 C1.32 32 2.64 32 4 32 C4 29.36 4 26.72 4 24 C2.68 24 1.36 24 0 24 C0 16.08 0 8.16 0 0 Z " fill="#D5D6D9" transform="translate(296,201)"/>
<path d="M0 0 C9.30158315 0.01487782 18.60255279 0.05648371 27.90384197 0.13209057 C32.22299309 0.16636217 36.54179046 0.19147075 40.86108398 0.19555664 C45.03057479 0.19983933 49.19926757 0.22829851 53.36850929 0.27343178 C54.95803998 0.28640792 56.54766616 0.29071401 58.13724327 0.28615379 C60.36670148 0.28124808 62.59382691 0.30733237 64.82299805 0.34057617 C66.72495186 0.35056892 66.72495186 0.35056892 68.66532898 0.36076355 C72.86474653 1.16576673 74.35023825 2.71829665 77 6 C77.96013369 9.08372351 77.53480376 10.68421672 77 14 C74.6875 15.75 74.6875 15.75 72 17 C69.64976082 19.60205052 68.76112982 21.62424831 68 25 C28.48838558 29.11359574 28.48838558 29.11359574 17.58325195 21.23147583 C10.71717569 15.51220113 4.86023739 8.48195857 0 1 C0 0.67 0 0.34 0 0 Z " fill="#458FC5" transform="translate(180,131)"/>
<path d="M0 0 C0.8862355 -0.00137466 1.77247101 -0.00274933 2.68556213 -0.00416565 C3.66019913 -0.00057037 4.63483612 0.0030249 5.63900757 0.00672913 C7.17563301 0.00651009 7.17563301 0.00651009 8.74330139 0.00628662 C12.14133801 0.00698526 15.53932033 0.01477541 18.93734741 0.02259827 C21.2886146 0.02446262 23.63988218 0.02588644 25.9911499 0.02688599 C32.18898587 0.03070981 38.38679851 0.04053895 44.58462524 0.05158997 C50.90532109 0.06180699 57.22602069 0.06638423 63.54672241 0.07142639 C75.95558684 0.08216132 88.36443394 0.09923614 100.77328491 0.12025452 C100.77328491 2.10025452 100.77328491 4.08025452 100.77328491 6.12025452 C99.50430359 6.12390015 98.23532227 6.12754578 96.92788696 6.13130188 C84.97946879 6.16821413 73.03130925 6.22594556 61.08308792 6.30415726 C54.9400957 6.34369684 48.79724823 6.37585359 42.65414429 6.39125061 C36.72769088 6.40637437 30.80163523 6.44074399 24.87535858 6.48856354 C22.61233728 6.50342152 20.34925919 6.51129805 18.08618927 6.51213837 C14.92058202 6.51449644 11.75608443 6.5414834 8.59066772 6.57435608 C7.6512735 6.56932571 6.71187927 6.56429535 5.74401855 6.55911255 C0.63157127 6.60456293 0.63157127 6.60456293 -3.78561401 8.96687317 C-5.64666354 11.74776718 -6.08776718 13.78550479 -6.22671509 17.12025452 C-5.1065261 20.48082147 -4.2813741 21.08381518 -1.22671509 23.12025452 C1.85929057 23.42309853 1.85929057 23.42309853 5.42855835 23.37562561 C6.4364743 23.38105629 6.4364743 23.38105629 7.4647522 23.38659668 C8.92323194 23.39348669 10.38173745 23.39599685 11.84023285 23.39464951 C14.15291217 23.39368356 16.46512755 23.40663562 18.77774048 23.42362976 C25.35271572 23.46987144 31.92764487 23.4944916 38.5027771 23.50111389 C42.52647296 23.50614346 46.54968695 23.5304696 50.5732193 23.56644058 C52.10250193 23.5762088 53.63185112 23.57858682 55.1611557 23.57326889 C69.98774458 23.52414794 69.98774458 23.52414794 75.77328491 28.12025452 C78.94146377 31.45517963 79.99914413 35.0112411 80.02328491 39.55775452 C79.94078491 40.73337952 79.85828491 41.90900452 79.77328491 43.12025452 C77.46328491 43.12025452 75.15328491 43.12025452 72.77328491 43.12025452 C72.60892944 42.18052795 72.60892944 42.18052795 72.44125366 41.22181702 C72.28269897 40.40455139 72.12414429 39.58728577 71.96078491 38.74525452 C71.8099646 37.93314514 71.65914429 37.12103577 71.50375366 36.28431702 C70.8978355 33.7620481 70.8978355 33.7620481 67.77328491 32.12025452 C64.72100475 31.8106331 64.72100475 31.8106331 61.19393921 31.84901428 C60.53014252 31.84378754 59.86634583 31.83856079 59.18243408 31.83317566 C57.7419693 31.82294058 56.30146758 31.81715611 54.86096764 31.81529427 C52.57796887 31.81162941 50.29540408 31.79489881 48.01249695 31.77453613 C41.52211595 31.71914342 35.03167036 31.68848248 28.54110718 31.66395569 C24.5693467 31.64804287 20.59789264 31.61778209 16.62629128 31.57919121 C15.11572343 31.56757059 13.60510068 31.56161112 12.09448814 31.56151009 C9.97627349 31.5613171 7.85889792 31.54298354 5.74081421 31.52088928 C4.53740891 31.51581863 3.3340036 31.51074799 2.09413147 31.50552368 C-2.25660662 31.00077129 -5.65226671 29.58998899 -8.87124634 26.58509827 C-12.81917999 21.4224158 -13.73592393 18.49461269 -13.71890259 12.02650452 C-12.89308073 7.15022308 -9.91053649 4.23733417 -6.22671509 1.12025452 C-3.90558721 -0.04030942 -2.58343884 -0.00308286 0 0 Z " fill="#2F4A5C" transform="translate(184.22671508789063,100.87974548339844)"/>
<path d="M0 0 C8.91 0 17.82 0 27 0 C27 8.25 27 16.5 27 25 C18.09 25 9.18 25 0 25 C0 16.75 0 8.5 0 0 Z " fill="#D5D7DB" transform="translate(119,200)"/>
<path d="M0 0 C8.91 0 17.82 0 27 0 C27 7.92 27 15.84 27 24 C18.09 24 9.18 24 0 24 C0 16.08 0 8.16 0 0 Z " fill="#D5D6DB" transform="translate(366,265)"/>
<path d="M0 0 C8.91 0 17.82 0 27 0 C27 7.92 27 15.84 27 24 C18.09 24 9.18 24 0 24 C0 16.08 0 8.16 0 0 Z " fill="#D5D6DB" transform="translate(366,233)"/>
<path d="M0 0 C8.91 0 17.82 0 27 0 C27 7.92 27 15.84 27 24 C18.09 24 9.18 24 0 24 C0 16.08 0 8.16 0 0 Z " fill="#D5D6DB" transform="translate(260,233)"/>
<path d="M0 0 C8.91 0 17.82 0 27 0 C27 7.92 27 15.84 27 24 C18.09 24 9.18 24 0 24 C0 16.08 0 8.16 0 0 Z " fill="#D5D6DB" transform="translate(225,233)"/>
<path d="M0 0 C8.91 0 17.82 0 27 0 C27 7.92 27 15.84 27 24 C18.09 24 9.18 24 0 24 C0 16.08 0 8.16 0 0 Z " fill="#D5D6DB" transform="translate(119,233)"/>
<path d="M0 0 C8.91 0 17.82 0 27 0 C27 7.92 27 15.84 27 24 C18.09 24 9.18 24 0 24 C0 16.08 0 8.16 0 0 Z " fill="#D5D6DB" transform="translate(366,201)"/>
<path d="M0 0 C8.91 0 17.82 0 27 0 C27 7.92 27 15.84 27 24 C18.09 24 9.18 24 0 24 C0 16.08 0 8.16 0 0 Z " fill="#D5D6DB" transform="translate(331,201)"/>
<path d="M0 0 C8.91 0 17.82 0 27 0 C27 7.92 27 15.84 27 24 C18.09 24 9.18 24 0 24 C0 16.08 0 8.16 0 0 Z " fill="#D5D6DB" transform="translate(260,201)"/>
<path d="M0 0 C8.91 0 17.82 0 27 0 C27 7.92 27 15.84 27 24 C18.09 24 9.18 24 0 24 C0 16.08 0 8.16 0 0 Z " fill="#D5D6DB" transform="translate(225,201)"/>
<path d="M0 0 C8.91 0 17.82 0 27 0 C27 7.92 27 15.84 27 24 C16.16015625 24.09765625 16.16015625 24.09765625 13 24 C12.67 23.67 12.34 23.34 12 23 C8.04644974 22.55073292 6.44377677 22.69128572 3.125 25 C2.42375 25.66 1.7225 26.32 1 27 C-0.3308911 24.33821779 -0.11268993 22.31260604 -0.09765625 19.3359375 C-0.09515869 18.3257959 -0.09266113 17.3156543 -0.09008789 16.27490234 C-0.08098389 14.98793457 -0.07187988 13.7009668 -0.0625 12.375 C-0.041875 8.29125 -0.02125 4.2075 0 0 Z " fill="#D5D6DB" transform="translate(331,233)"/>
<path d="M0 0 C8.58 0 17.16 0 26 0 C26 7.92 26 15.84 26 24 C17.42 24 8.84 24 0 24 C0 16.08 0 8.16 0 0 Z " fill="#D5D6DB" transform="translate(155,201)"/>
<path d="M0 0 C8.58 0 17.16 0 26 0 C26.0825 3.2175 26.165 6.435 26.25 9.75 C26.28641602 10.75772461 26.32283203 11.76544922 26.36035156 12.80371094 C26.44286279 19.42856414 26.44286279 19.42856414 24.0625 22.5 C23.381875 22.995 22.70125 23.49 22 24 C20.76487921 26.13309192 20.76487921 26.13309192 20 28 C19.319375 27.154375 18.63875 26.30875 17.9375 25.4375 C15.20962566 22.61093756 15.20962566 22.61093756 11.6875 23.1875 C10.470625 23.455625 9.25375 23.72375 8 24 C5.36 24 2.72 24 0 24 C0 16.08 0 8.16 0 0 Z " fill="#D5D6DA" transform="translate(155,233)"/>
<path d="M0 0 C10.89 0 21.78 0 33 0 C33.12375 2.908125 33.2475 5.81625 33.375 8.8125 C33.68055848 15.2500741 34.1902298 21.46570144 35.59765625 27.7734375 C36.04003479 30.22155175 36.06579171 32.51745954 36 35 C34.35 35 32.7 35 31 35 C31 34.01 31 33.02 31 32 C29.81506425 30.38550906 29.81506425 30.38550906 28.15429688 28.82958984 C27.53365356 28.21240082 26.91301025 27.59521179 26.27355957 26.95932007 C25.59547241 26.29985382 24.91738525 25.64038757 24.21875 24.9609375 C23.53067261 24.27947662 22.84259521 23.59801575 22.13366699 22.89590454 C19.92939448 20.71509437 17.71523268 18.5446715 15.5 16.375 C13.28651598 14.19649851 11.07514658 12.01590884 8.86633301 9.83267212 C7.48947927 8.47288698 6.10956784 7.11619014 4.72644043 5.76278687 C4.10579712 5.15190216 3.48515381 4.54101746 2.84570312 3.91162109 C2.29499146 3.37217865 1.74427979 2.83273621 1.17687988 2.27694702 C0 1 0 1 0 0 Z " fill="#4892C6" transform="translate(111,301)"/>
<path d="M0 0 C8.91 0 17.82 0 27 0 C27 8.25 27 16.5 27 25 C23.7 25 20.4 25 17 25 C15 22.5625 15 22.5625 14 20 C10.95016004 18.47508002 8.3576631 18.76437452 5 19 C2.62440584 20.72025784 1.65784201 22.51323699 0 25 C0 16.75 0 8.5 0 0 Z " fill="#D6D7DB" transform="translate(190,200)"/>
<path d="M0 0 C8.25 0 16.5 0 25 0 C24.67 7.92 24.34 15.84 24 24 C16.08 24 8.16 24 0 24 C0 16.08 0 8.16 0 0 Z " fill="#D5D6DA" transform="translate(120,265)"/>
<path d="M0 0 C14.19 0 28.38 0 43 0 C42.34 1.65 41.68 3.3 41 5 C40.67 7.31 40.34 9.62 40 12 C27.79 12 15.58 12 3 12 C2.34 9.03 1.68 6.06 1 3 C0.67 2.01 0.34 1.02 0 0 Z " fill="#EAEEF1" transform="translate(232,289)"/>
<path d="M0 0 C9.24 0 18.48 0 28 0 C28 3.96 28 7.92 28 12 C18.76 12 9.52 12 0 12 C0 8.04 0 4.08 0 0 Z " fill="#D6D8DD" transform="translate(154,181)"/>
<path d="M0 0 C8.91 0 17.82 0 27 0 C27 3.96 27 7.92 27 12 C18.09 12 9.18 12 0 12 C0 8.04 0 4.08 0 0 Z " fill="#D6D7DC" transform="translate(366,181)"/>
<path d="M0 0 C8.91 0 17.82 0 27 0 C27 3.96 27 7.92 27 12 C18.09 12 9.18 12 0 12 C0 8.04 0 4.08 0 0 Z " fill="#D6D7DC" transform="translate(331,181)"/>
<path d="M0 0 C8.91 0 17.82 0 27 0 C27 3.96 27 7.92 27 12 C18.09 12 9.18 12 0 12 C0 8.04 0 4.08 0 0 Z " fill="#D6D7DC" transform="translate(296,181)"/>
<path d="M0 0 C8.91 0 17.82 0 27 0 C27 3.96 27 7.92 27 12 C18.09 12 9.18 12 0 12 C0 8.04 0 4.08 0 0 Z " fill="#D6D7DC" transform="translate(260,181)"/>
<path d="M0 0 C8.91 0 17.82 0 27 0 C27 3.96 27 7.92 27 12 C18.09 12 9.18 12 0 12 C0 8.04 0 4.08 0 0 Z " fill="#D6D7DC" transform="translate(225,181)"/>
<path d="M0 0 C8.91 0 17.82 0 27 0 C27 3.96 27 7.92 27 12 C18.09 12 9.18 12 0 12 C0 8.04 0 4.08 0 0 Z " fill="#D6D7DC" transform="translate(190,181)"/>
<path d="M0 0 C8.91 0 17.82 0 27 0 C27 3.96 27 7.92 27 12 C18.09 12 9.18 12 0 12 C0 8.04 0 4.08 0 0 Z " fill="#D6D7DC" transform="translate(119,181)"/>
<path d="M0 0 C2.75337251 1.75214614 4.23039316 2.87963152 5.75 5.75 C5.75 7.4 5.75 9.05 5.75 10.75 C-2.5 10.75 -10.75 10.75 -19.25 10.75 C-18.21700133 4.55200795 -17.79430209 3.53691841 -13.25 -0.25 C-8.50101245 -1.83299585 -4.68540528 -1.80207896 0 0 Z " fill="#63798A" transform="translate(267.25,145.25)"/>
<path d="M0 0 C3.3 0 6.6 0 10 0 C10 7.92 10 15.84 10 24 C6.7 24 3.4 24 0 24 C0 16.08 0 8.16 0 0 Z " fill="#D5D6DB" transform="translate(207,233)"/>
<path d="M0 0 C2.31 0 4.62 0 7 0 C7 6.6 7 13.2 7 20 C5.35 20.66 3.7 21.32 2 22 C1.67 22.99 1.34 23.98 1 25 C0.67 25 0.34 25 0 25 C0 16.75 0 8.5 0 0 Z " fill="#D8D7D7" transform="translate(316,233)"/>
<path d="M0 0 C0.99 0.103125 1.98 0.20625 3 0.3125 C5 3.3125 5 3.3125 4.75 5.875 C4 8.3125 4 8.3125 2 10.3125 C-0.5 10.5625 -0.5 10.5625 -3 10.3125 C-5 8.3125 -5 8.3125 -5.25 5.3125 C-4.90578549 1.18192588 -4.11441953 0.42858537 0 0 Z " fill="#4DC6A5" transform="translate(380,164.6875)"/>
<path d="M0 0 C3.0625 0.1875 3.0625 0.1875 5.0625 2.1875 C5.375 5.1875 5.375 5.1875 5.0625 8.1875 C2.0625 10.1875 2.0625 10.1875 -0.5 9.9375 C-2.9375 9.1875 -2.9375 9.1875 -4.9375 7.1875 C-4.23164336 0.2701049 -4.23164336 0.2701049 0 0 Z " fill="#DE6056" transform="translate(343.9375,164.8125)"/>
<path d="M0 0 C3 0.25 3 0.25 5 2.25 C4.625 5.875 4.625 5.875 4 9.25 C-1.44736842 10.58157895 -1.44736842 10.58157895 -3.875 9.125 C-5.3568671 6.65522151 -5.3633156 5.08386167 -5 2.25 C-3 0.25 -3 0.25 0 0 Z " fill="#FDD461" transform="translate(309,164.75)"/>
<path d="M0 0 C1.98 0 3.96 0 6 0 C6.99 2.31 7.98 4.62 9 7 C3.375 12 3.375 12 0 12 C0 8.04 0 4.08 0 0 Z " fill="#EAEEEE" transform="translate(207,289)"/>
<path d="M0 0 C1.98 0 3.96 0 6 0 C6 3.96 6 7.92 6 12 C2.29511572 11.07377893 0.83395931 10.32789515 -2 8 C-1.125 2.25 -1.125 2.25 0 0 Z " fill="#EAEEEE" transform="translate(294,289)"/>
</svg>
